<?xml version="1.0" encoding="utf-8"?>
<!-- Generator: Adobe Illustrator 17.0.0, SVG Export Plug-In . SVG Version: 6.00 Build 0)  -->
<!DOCTYPE svg PUBLIC "-//W3C//DTD SVG 1.1//EN" "http://www.w3.org/Graphics/SVG/1.1/DTD/svg11.dtd" [
	<!ENTITY ns_flows "http://ns.adobe.com/Flows/1.0/">
	<!ENTITY ns_extend "http://ns.adobe.com/Extensibility/1.0/">
	<!ENTITY ns_ai "http://ns.adobe.com/AdobeIllustrator/10.0/">
	<!ENTITY ns_graphs "http://ns.adobe.com/Graphs/1.0/">
]>
<svg version="1.1" id="图层_1" xmlns:x="&ns_extend;" xmlns:i="&ns_ai;" xmlns:graph="&ns_graphs;"
	 xmlns="http://www.w3.org/2000/svg" xmlns:xlink="http://www.w3.org/1999/xlink" xmlns:a="http://ns.adobe.com/AdobeSVGViewerExtensions/3.0/"
	 x="0px" y="0px" width="42.507px" height="42.52px" viewBox="0 0 42.507 42.52" style="enable-background:new 0 0 42.507 42.52;"
	 xml:space="preserve">
<g>
	<path style="fill:none;stroke:#CEA774;stroke-width:2;" d="M41.102,21.211c0.038,10.835-8.935,19.853-19.793,19.891
		C10.473,41.141,1.456,32.169,1.417,21.309C1.379,10.478,10.356,1.456,21.211,1.417C32.043,1.379,41.064,10.356,41.102,21.211z"/>
	<path style="fill:#CEA774;" d="M14.533,16.559c0,2.597-0.012,5.194,0.003,7.791c0.02,3.386,1.399,4.803,4.827,4.89
		c2.239,0.057,4.482-0.011,6.721,0.039c2.116,0.048,3.887,0.821,4.93,2.775c0.986,1.847,0.317,2.956-1.743,2.964
		c-2.088,0.009-4.176,0.011-6.264-0.003c-1.698-0.012-3.028-0.764-4.039-2.103c-0.141-0.186-0.416-0.378-0.238-0.648
		c0.211-0.32,0.55-0.235,0.816-0.082c0.302,0.175,0.578,0.403,0.842,0.635c0.756,0.664,1.609,1.032,2.635,1.023
		c2.037-0.019,4.075-0.045,6.11,0.013c1.225,0.035,1.298-0.482,0.801-1.362c-0.808-1.429-2.126-2.002-3.691-2.031
		c-2.138-0.04-4.278,0.005-6.416-0.022c-4.542-0.056-6.47-2.014-6.478-6.575c-0.009-5.398-0.007-10.796,0.001-16.194
		c0.003-1.912,0.954-2.56,2.758-1.842c1.984,0.79,2.921,2.435,2.957,4.432c0.099,5.345,0.046,10.693,0.043,16.04
		c0,0.276,0.143,0.667-0.252,0.781c-0.446,0.128-0.67-0.22-0.747-0.574c-0.107-0.489-0.171-0.999-0.172-1.5
		c-0.015-4.787-0.011-9.574-0.017-14.361c-0.002-1.588-0.537-2.921-2.019-3.662c-0.803-0.402-1.42-0.392-1.39,0.869
		C14.58,10.752,14.533,13.656,14.533,16.559z"/>
</g>
</svg>
