<?xml version="1.0" encoding="utf-8"?>
<!-- Generator: Adobe Illustrator 17.0.0, SVG Export Plug-In . SVG Version: 6.00 Build 0)  -->
<!DOCTYPE svg PUBLIC "-//W3C//DTD SVG 1.1//EN" "http://www.w3.org/Graphics/SVG/1.1/DTD/svg11.dtd">
<svg version="1.1" id="图层_1" xmlns="http://www.w3.org/2000/svg" xmlns:xlink="http://www.w3.org/1999/xlink" x="0px" y="0px"
	 width="56.693px" height="56.693px" viewBox="20.069 20.069 56.693 56.693" enable-background="new 20.069 20.069 56.693 56.693"
	 xml:space="preserve">
<path fill="#CEA774" d="M63.212,29.199l0.409-1.915c1.04,0.222,2.395,0.423,3.915,0.423c3.499,0,5.564-1.212,5.564-1.212v-3.068
	c0,0-2.337,0.731-5.564,0.731c-2.746,0-5.542-0.523-6.352-0.681l-0.129-0.029c-0.064-0.014-0.1-0.022-0.1-0.022l-1.04,4.338
	c-2.617-0.925-5.434-1.427-8.359-1.427c-13.909,0-25.215,11.306-25.215,25.208c0,13.909,11.306,25.215,25.215,25.215
	c13.902,0,25.208-11.306,25.208-25.215C76.762,41.846,71.262,33.415,63.212,29.199z M61.261,38.269
	C65.348,41.273,68,46.105,68,51.547c0,9.077-7.377,16.454-16.446,16.454c-9.077,0-16.461-7.378-16.461-16.454
	c0-9.07,7.385-16.454,16.461-16.454c2.229,0,4.359,0.444,6.295,1.255l-2.344,9.765c-1.104-0.803-2.474-1.283-3.95-1.283
	c-3.714,0-6.725,3.011-6.725,6.718c0,3.714,3.011,6.725,6.725,6.725c3.205,0,5.893-2.251,6.553-5.27l0.057-0.28L61.261,38.269z
	 M51.554,74.023c-12.396,0-22.483-10.08-22.483-22.476c0-12.389,10.088-22.469,22.483-22.469c2.71,0,5.313,0.48,7.714,1.369
	l-0.946,3.943c-2.094-0.839-4.38-1.297-6.768-1.297c-10.181,0-18.461,8.281-18.461,18.454c0,10.181,8.281,18.461,18.461,18.461
	c10.173,0,18.454-8.281,18.454-18.461c0-6.417-3.299-12.088-8.289-15.393l0.889-4.158c6.811,3.864,11.414,11.177,11.414,19.551
	C74.023,63.943,63.943,74.023,51.554,74.023z"/>
<path fill="#CEA774" d="M41.088,51.55h-2.151c0-6.954,5.658-12.612,12.614-12.612v2.15C45.781,41.088,41.088,45.781,41.088,51.55z"
	/>
<path fill="#CEA774" d="M22.221,51.55H20.07c0-17.358,14.122-31.481,31.481-31.481v2.151C35.378,22.221,22.221,35.378,22.221,51.55z
	"/>
</svg>
