<?xml version="1.0" encoding="utf-8"?>
<!-- Generator: Adobe Illustrator 17.0.0, SVG Export Plug-In . SVG Version: 6.00 Build 0)  -->
<!DOCTYPE svg PUBLIC "-//W3C//DTD SVG 1.1//EN" "http://www.w3.org/Graphics/SVG/1.1/DTD/svg11.dtd" [
	<!ENTITY ns_flows "http://ns.adobe.com/Flows/1.0/">
	<!ENTITY ns_extend "http://ns.adobe.com/Extensibility/1.0/">
	<!ENTITY ns_ai "http://ns.adobe.com/AdobeIllustrator/10.0/">
	<!ENTITY ns_graphs "http://ns.adobe.com/Graphs/1.0/">
]>
<svg version="1.1" id="图层_1" xmlns:x="&ns_extend;" xmlns:i="&ns_ai;" xmlns:graph="&ns_graphs;"
	 xmlns="http://www.w3.org/2000/svg" xmlns:xlink="http://www.w3.org/1999/xlink" xmlns:a="http://ns.adobe.com/AdobeSVGViewerExtensions/3.0/"
	 x="0px" y="0px" width="42.52px" height="42.52px" viewBox="0 0 42.52 42.52" style="enable-background:new 0 0 42.52 42.52;"
	 xml:space="preserve">
<g>
	<path style="fill:#CEA774;" d="M17.652,38.458c-4.001-0.016-8.049-0.888-11.823-2.887c-1.936-1.025-3.544-2.425-4.678-4.316
		c-1.456-2.429-1.412-4.982-0.523-7.573c0.826-2.408,2.198-4.503,3.839-6.424c2.399-2.808,5.096-5.268,8.427-6.945
		c1.485-0.748,3.019-1.363,4.713-1.444c2.207-0.106,3.601,1.232,3.586,3.439c-0.005,0.749-0.16,1.471-0.351,2.19
		c-0.066,0.248-0.269,0.532-0.04,0.759c0.245,0.243,0.57,0.116,0.846,0.011c1.385-0.529,2.772-1.05,4.244-1.286
		c1.019-0.164,2.043-0.22,3.064-0.029c2.184,0.408,3.219,2.028,2.699,4.227c-0.123,0.52-0.261,1.04-0.446,1.54
		c-0.17,0.461,0.06,0.634,0.427,0.768c0.503,0.184,1.012,0.354,1.502,0.569c1.904,0.835,3.324,2.137,3.813,4.227
		c0.425,1.818-0.138,3.468-1.073,5.006c-1.158,1.905-2.818,3.307-4.654,4.518c-2.958,1.951-6.252,2.948-9.731,3.422
		C20.301,38.391,19.103,38.438,17.652,38.458z M15.748,36.044c1.944-0.018,3.631-0.228,5.284-0.677
		c2.837-0.771,5.332-2.118,7.24-4.408c2.193-2.632,2.022-6.039-0.399-8.463c-1.104-1.105-2.427-1.861-3.881-2.385
		c-3.349-1.207-6.765-1.271-10.212-0.51c-2.999,0.662-5.658,1.974-7.728,4.296c-1.669,1.872-2.269,4.026-1.383,6.447
		c0.621,1.695,1.896,2.847,3.412,3.739C10.517,35.516,13.194,36.002,15.748,36.044z"/>
	<path style="fill:#CEA774;" d="M31.329,4.071c5.41-0.059,10.113,3.919,11.015,9.261c0.308,1.827,0.226,3.615-0.364,5.373
		c-0.247,0.737-0.861,1.193-1.546,1.178c-0.727-0.015-1.334-0.466-1.563-1.167c-0.128-0.391-0.069-0.775,0.045-1.161
		c1.155-3.902-0.745-8.006-4.467-9.608c-1.517-0.653-3.099-0.829-4.727-0.509c-1.031,0.203-1.921-0.338-2.092-1.27
		c-0.176-0.959,0.424-1.738,1.487-1.925c0.357-0.063,0.714-0.139,1.075-0.167C30.569,4.048,30.95,4.071,31.329,4.071z"/>
	<path style="fill:#CEA774;" d="M36.726,15.267c0.034,0.546-0.063,1.026-0.194,1.497c-0.235,0.846-0.989,1.327-1.75,1.129
		c-0.76-0.198-1.162-0.972-0.957-1.847c0.369-1.579-0.436-2.999-1.92-3.382c-0.405-0.105-0.813-0.077-1.22-0.008
		c-0.766,0.13-1.499-0.325-1.636-1.013c-0.165-0.83,0.264-1.507,1.085-1.713c2.873-0.721,5.988,1.343,6.5,4.307
		C36.695,14.594,36.764,14.952,36.726,15.267z"/>
	<path style="fill:#CEA774;" d="M16.489,22.511c2.021,0.075,3.63,0.511,4.881,1.798c1.502,1.546,1.937,3.372,1.162,5.403
		c-1.031,2.701-3.157,4.042-5.896,4.519c-1.748,0.304-3.4-0.065-4.891-1.017c-2.231-1.424-3.012-4.26-1.808-6.614
		C11.354,23.826,13.788,22.704,16.489,22.511z M13.571,31.703c1.281-0.028,2.306-0.729,2.662-1.711
		c0.359-0.99-0.111-2.02-1.091-2.393c-1.094-0.417-2.466,0.09-3.113,1.152c-0.399,0.654-0.481,1.327-0.082,2.009
		C12.344,31.438,12.982,31.685,13.571,31.703z M18.354,27.172c0.001-0.429-0.312-0.72-0.769-0.714
		c-0.528,0.006-0.982,0.45-0.978,0.956c0.003,0.382,0.328,0.659,0.769,0.656C17.903,28.065,18.353,27.652,18.354,27.172z"/>
</g>
</svg>
